<mxfile host="app.diagrams.net" modified="2024-04-24T00:33:08.435Z" agent="Mozilla/5.0 (Macintosh; Intel Mac OS X 10.15; rv:124.0) Gecko/20100101 Firefox/124.0" version="24.2.8" etag="dl6wBHgw5HlV3FIfLen6" type="github">
  <diagram name="Page-1" id="kNNJUaWTcbDwnFRrItZC">
    <mxGraphModel>
      <root>
        <mxCell id="0" />
        <mxCell id="1" parent="0" />
      </root>
    </mxGraphModel>
  </diagram>
</mxfile>
